<svg xmlns="http://www.w3.org/2000/svg" width="256" height="256" preserveAspectRatio="xMidYMid"><defs><linearGradient id="a" x1="50%" x2="50%" y1="3.96%" y2="100%"><stop stop-color="#FDFDFD" offset="0%"/><stop stop-color="#CBCBCB" offset="100%"/></linearGradient><linearGradient id="b" x1="50%" x2="50%" y1="3.96%" y2="100%"><stop stop-color="#B2E198" offset="0%"/><stop stop-color="#04A171" offset="100%"/></linearGradient></defs><circle cx="128" cy="128" r="127.86" fill="url(#a)"/><circle cx="127.86" cy="128.14" r="116.91" fill="url(#b)"/><path fill="#F2F8F6" d="M100.45 110.1c-1.37 2.12-2.7 4.25-3.98 6.38-1.4-3.86-2.64-7.67-3.7-11.38 3.74-.53 7.7-.95 11.9-1.25-1.43 2.04-2.84 4.12-4.22 6.25zm103.14 7.47c-4.2-3.96-10.1-7.6-17.6-10.8-14.9-6.36-34.9-10.48-56.3-11.6-2.6-.13-5.1-.23-7.5-.27 16.3-19.5 32.1-29.85 41.2-30.2 1.9-.07 3.6.3 4.8 1.14 4.3 2.8 5.5 11.45 3.2 23.17-.5 2.4 1 4.6 3.4 5.1 2.3.5 4.5-1 5-3.3 3.9-20.1-1.6-28.5-6.9-31.9-2.8-1.8-6.1-2.6-9.9-2.5-14.1.6-33.9 15.6-52 38.8-7.2.3-14.1.9-20.5 1.9-.7-3.25-1.3-6.44-1.7-9.5-1.6-13.33.4-22.8 5.3-25.33.8-.4 1.7-.63 2.7-.7 4.4-.34 10.63 2.63 17.52 8.35 1.8 1.5 4.5 1.23 6-.6 1.5-1.8 1.24-4.5-.58-6-8.88-7.34-16.8-10.8-23.66-10.3-2.1.16-4.1.7-5.9 1.6-4.6 2.4-7.7 6.85-9.3 13.35-1.4 5.54-1.6 12.5-.6 20.6.4 3.2.96 6.57 1.7 10-5.04 1.07-9.7 2.36-13.9 3.88-18.3 6.6-22.54 15.35-22.9 21.5-.3 5.9 2.7 14.6 18.8 22.9 2.1 1.1 4.7.27 5.8-1.8 1.03-2.1.2-4.7-1.9-5.77-9.2-4.8-14.4-10.2-14.13-14.9.32-6.6 11.4-13.6 30.25-17.56 1.8 6.3 4 12.82 6.7 19.5-6.8 12.7-11.7 25.22-14.3 36.4-1.8 7.94-2.33 14.9-1.6 20.53.9 6.6 3.6 11.4 7.9 14.2 2.2 1.4 5.2 2.5 9.1 2.5 5.7 0 13.3-2.34 23.37-9.5 1.9-1.4 2.33-4.06 1-5.97-1.4-1.95-4.07-2.4-6-1-9.94 7.05-18.5 9.6-22.83 6.75-4.63-3.02-5.6-12.62-2.6-25.72 2-8.63 5.55-18.3 10.4-28.2 1.05 2.28 2.14 4.5 3.3 6.77 9.7 19.1 21.6 35.7 33.5 46.77 6 5.57 11.7 9.5 17 11.66 3.2 1.3 6.24 2 9.04 2 2.6 0 5-.6 7.25-1.7 4.4-2.26 7.5-6.5 9.13-12.67 1.4-5.3 1.7-11.86.92-19.5-1.54-15.15-7.25-33.58-16.1-51.9-1-2.16-3.56-3.05-5.7-2-2.1 1-3 3.54-2 5.7 8.4 17.45 13.86 34.9 15.3 49.03 1.27 12.4-.8 21.3-5.5 23.7-4.93 2.5-13.74-1.46-23.56-10.6-11.2-10.4-22.46-26.2-31.7-44.4-2.16-4.2-4.1-8.35-5.9-12.5 2.2-3.95 4.6-7.9 7.1-11.84 2.6-4 5.3-7.8 7.9-11.37h2.1c3.7 0 7.6.1 11.7.3 20.4 1.1 39.4 4.9 53.4 10.9 12.38 5.3 19.57 11.7 19.28 17.3-.23 4.7-5.95 9.56-15.7 13.34-2.2.86-3.27 3.34-2.4 5.53.64 1.7 2.25 2.7 4 2.7.5 0 1-.1 1.5-.3 16.9-6.54 20.8-14.94 21.13-20.84.3-5.16-2.04-10.1-6.87-14.75z"/><path fill="#F1F8F3" d="M119.2 129.13c0 5.16 4.17 9.33 9.32 9.33s9.32-4.17 9.32-9.33c0-5.15-4.17-9.33-9.32-9.33s-9.33 4.18-9.33 9.33"/></svg>